<svg width="58" height="107" viewBox="0 0 58 107" fill="none" xmlns="http://www.w3.org/2000/svg">
<path d="M54.6996 6.55147V48.0978C54.7977 53.4289 53.1248 58.6407 49.9457 62.9087C46.9835 66.6841 42.8064 69.3052 38.1314 70.3219C36.8528 70.6583 35.5527 70.906 34.2404 71.0633C33.3304 71.1106 33.0951 71.4892 33.0951 72.4672L33.1109 100.354C33.1109 100.401 33.0952 103.682 29.0001 103.682C24.9051 103.682 24.8894 100.401 24.8894 100.354L24.9051 72.4672C24.9051 71.4892 24.6699 71.1106 23.7598 71.0633C22.4475 70.906 21.1474 70.6583 19.8688 70.3219C15.1938 69.3052 11.0167 66.6841 8.0545 62.9087C4.8754 58.6407 3.20255 53.4289 3.3006 48.0978V6.55147C3.1819 5.33281 3.91769 4.1937 5.07337 3.80697C5.11114 3.7941 5.14787 3.7783 5.18321 3.75969C5.23259 3.73192 5.28535 3.7107 5.34015 3.69655C5.37148 3.68076 5.38718 3.66507 5.41859 3.66507C6.02271 3.42554 6.66775 3.30763 7.31708 3.31801C7.96115 3.30906 8.60073 3.42697 9.19974 3.66507C9.23115 3.66507 9.24687 3.68076 9.27834 3.69655C9.33311 3.71072 9.38584 3.73194 9.43519 3.75969C9.4666 3.7754 9.51363 3.79118 9.54503 3.80697C10.704 4.19173 11.4456 5.32961 11.3336 6.55147V46.757C11.3766 48.2952 11.5233 49.8288 11.7729 51.347C12.3432 56.4414 15.6705 60.8003 20.4179 62.672C23.1434 63.7812 26.0598 64.3386 29 64.3124C31.9403 64.3386 34.8568 63.7812 37.5823 62.672C42.3296 60.8003 45.657 56.4414 46.2273 51.347C46.4769 49.8288 46.6236 48.2952 46.6666 46.757V6.55147C46.5546 5.3296 47.2962 4.19171 48.4552 3.80697C48.4866 3.79118 48.5336 3.7754 48.565 3.75969C48.6144 3.73192 48.6671 3.7107 48.7219 3.69655C48.7533 3.68076 48.769 3.66507 48.8005 3.66507C50.0188 3.20232 51.3633 3.20232 52.5816 3.66507C52.613 3.66507 52.6287 3.68076 52.6601 3.69655C52.7149 3.7107 52.7676 3.73192 52.817 3.75969C52.8523 3.77828 52.889 3.79408 52.9267 3.80697C54.0825 4.19364 54.8183 5.33276 54.6996 6.55147Z" fill="#8A9EFF"/>
<path d="M47.6113 103.682C51.5258 103.682 54.6992 100.492 54.6992 96.5562C54.6992 92.6209 51.5258 89.4307 47.6113 89.4307C43.6968 89.4307 40.5234 92.6209 40.5234 96.5562C40.5234 100.492 43.6968 103.682 47.6113 103.682Z" fill="#FF6495"/>
</svg>
